General Complete name Captain.America.VHSRip.XviD

Format : AVI
Format/Info : Audio Video Interleave
File size : 707 MiB
Duration : 1h 36mn
Overall bit rate : 1 019 Kbps
Original source form/Distributed : Captain America VHS
Encoded by : Vice / Vicerock/Vicez
Subject : Captain America VHSRip XviD
Recorded date : 1 July 2010 Time 0205
Writing application : MEncoder SVN-r29352(20090610-gcc4.3.3)
Writing library : VirtualDub build 32618/release
Original source form/Name : Avi.XviD.Movies
Comment : Vice Movie Collection

Video
ID : 0
Format : MPEG-4 Visual
Format profile : AdvancedSimple@L5
Format settings, BVOP : Yes
Format settings, QPel : No
Format settings, GMC : No warppoints
Format settings, Matrix : Default (H.263)
Muxing mode : Packed bitstream
Codec ID : XVID
Codec ID/Hint : XviD
Duration : 1h 36mn
Bit rate : 882 Kbps
Width : 640 pixels
Height : 360 pixels
Display aspect ratio : 16:9
Frame rate : 25.000 fps
Resolution : 24 bits
Colorimetry : 4:2:0
Scan type : Progressive
Bits/(Pixel*Frame) : 0.153
Stream size : 611 MiB (86%)
Writing library : XviD 1.1.2 (UTC 2006-11-01)

Audio
ID : 1
Format : MPEG Audio
Format version : Version 1
Format profile : Layer 3
Codec ID : 55
Codec ID/Hint : MP3
Duration : 1h 36mn
Bit rate mode : Constant
Bit rate : 128 Kbps
Channel(s) : 2 channels
Sampling rate : 44.1 KHz
Resolution : 16 bits
Stream size : 88.7 MiB (13%)
Alignment : Split accross interleaves
Interleave, duration : 40 ms (1.00 video frame)
Interleave, preload duration : 500 ms
Writing library : LAME3.98

Plot

In 1936 fascist Italy, the government kidnaps a boy from his family, whom they subsequently kill. The boy is needed for an experimental project to create a fascist supersoldier; however, Dr. Vaselli (Carla Cassola) objects to using the boy, and under the cover of gunfire flees to the United States of America to help create an American super soldier.

Seven years later, the American government finds a volunteer in Steve Rogers, a loyal all-American who is excluded from the draft because of his polio. The formula successfully transforms Rogers into a superhero, but before any more super soldiers can be created using the formula she keeps in her head, Dr. Vaselli is murdered by a Nazi spy. Meanwhile, the Italian boy has become the Red Skull and is planning to launch a missile at the White House. Rogers, code named Captain America, is sent in to defeat the Skull and deactivate the missile.

Starring->Matt Salinger,Ronny Cox,Scott Paulin,Ned Beatty,Darren McGavin,Francesca Neri
 
http://www.imdb.com/title/tt0103923/

NOTE->Sharpened the video as best i could please enjoy

PLEASE SEED AND ENJOY THANKS

screen shots
 
http://img413.imageshack.us/img413/8796/captainamericaxvidvicea.jpg 
http://img541.imageshack.us/img541/8796/captainamericaxvidvicea.jpg
 
http://img94.imageshack.us/img94/8796/captainamericaxvidvicea.jpg 
http://img52.imageshack.us/img52/8796/captainamericaxvidvicea.jpg
 
http://img293.imageshack.us/img293/8796/captainamericaxvidvicea.jpg 
http://img805.imageshack.us/img805/8796/captainamericaxvidvicea.jpg

My Other Torrents
    
http://thepiratebay.org/user/vicerock/	